<?xml version="1.0" encoding="UTF-8" standalone="no"?>
<!-- Created with Inkscape (http://www.inkscape.org/) -->

<svg
   width="79.908188mm"
   height="12.831223mm"
   viewBox="0 0 79.908187 12.831224"
   version="1.1"
   id="svg1"
   xml:space="preserve"
   inkscape:version="1.4 (86a8ad7, 2024-10-11)"
   sodipodi:docname="icecube-logo.svg"
   inkscape:export-filename="icecube-logo.svg"
   inkscape:export-xdpi="96"
   inkscape:export-ydpi="96"
   xmlns:inkscape="http://www.inkscape.org/namespaces/inkscape"
   xmlns:sodipodi="http://sodipodi.sourceforge.net/DTD/sodipodi-0.dtd"
   xmlns="http://www.w3.org/2000/svg"
   xmlns:svg="http://www.w3.org/2000/svg"><sodipodi:namedview
     id="namedview1"
     pagecolor="#ffffff"
     bordercolor="#000000"
     borderopacity="0.25"
     inkscape:showpageshadow="false"
     inkscape:pageopacity="0.0"
     inkscape:pagecheckerboard="true"
     inkscape:deskcolor="#d1d1d1"
     inkscape:document-units="mm"
     inkscape:zoom="1.0093364"
     inkscape:cx="373.01735"
     inkscape:cy="72.820121"
     inkscape:window-width="2560"
     inkscape:window-height="1351"
     inkscape:window-x="-9"
     inkscape:window-y="-9"
     inkscape:window-maximized="1"
     inkscape:current-layer="layer1"
     showborder="false"
     borderlayer="false"
     labelstyle="default"
     inkscape:antialias-rendering="true"><inkscape:page
       x="0"
       y="-2.5628838e-24"
       width="79.908188"
       height="12.831224"
       id="page2"
       margin="0"
       bleed="0" /></sodipodi:namedview><defs
     id="defs1" /><g
     inkscape:groupmode="layer"
     id="layer1"
     inkscape:label="Layer 1"><g
       id="g1"
       transform="matrix(0.3056328,0,0,0.3056328,-4.1904092,-4.1444042)"><g
         id="color"><path
           fill="#92d3f5"
           d="M 36.6352,54.5916 58.47,48.923 58.318,20.5487 l -21.7013,4.55 -21.85,-5.0948 V 44.91 a 5.0437,5.0437 0 0 0 3.637,4.9572 l 18.1976,4.7244 v -25.358"
           id="path1" /><path
           fill="#61b2e4"
           d="M 36.6352,54.5916 56.8116,49.3535 A 2.2146,2.2146 0 0 0 58.47,47.21 V 22.7943 a 2.2148,2.2148 0 0 0 -2.7176,-2.1569 l -19.1357,4.4613"
           id="path2" /><path
           fill="#ffffff"
           d="M 36.6182,43.7113 36.3582,54.1291 31.0047,53.3978 15.076,33.0374 V 20.5487 l 2.955,0.2794 18.5872,22.8832"
           id="path3" /><polyline
           fill="#92d3f5"
           points="14.767 20.004 36.808 14.309 57.949 20.579"
           id="polyline3" /><polyline
           fill="#92d3f5"
           points="57.398 20.254 36.451 25.368 14.745 19.869"
           id="polyline4" /></g><g
         id="line"><path
           fill="none"
           stroke="#000000"
           stroke-linecap="round"
           stroke-linejoin="round"
           stroke-width="2.069"
           d="m 36.6013,29.2336 v 22.644 a 2.0994,2.0994 0 0 1 -2.627,2.032 L 32.8302,53.6126 32.6657,53.5699 18.151,49.8016 a 4.6932,4.6932 0 0 1 -3.3843,-4.6127 v -22.54 a 2.0993,2.0993 0 0 1 2.5761,-2.0445 l 17.7214,4.1321 a 6.8379,6.8379 0 0 0 3.105,0 L 55.8937,20.6043 A 2.0994,2.0994 0 0 1 58.47,22.649 v 24.65 a 2.1,2.1 0 0 1 -1.5719,2.032 l -19.5738,5.0817 a 2.9706,2.9706 0 0 1 -1.3844,0.0261 L 33.9743,53.91"
           id="path4" /><path
           fill="none"
           stroke="#000000"
           stroke-linecap="round"
           stroke-linejoin="round"
           stroke-width="2.069"
           d="m 14.7451,24.4107 0.0168,-3.4268 a 1.2719,1.2719 0 0 1 0.9537,-1.2252 L 34.83,14.82 a 7.0928,7.0928 0 0 1 3.926,0.1089 l 18.5261,5.0135 a 1.6083,1.6083 0 0 1 1.1879,1.5528 v 2.6654"
           id="path5" /></g></g><text
       xml:space="preserve"
       style="font-style:normal;font-variant:normal;font-weight:normal;font-stretch:normal;font-size:14.736px;font-family:'Eras Medium ITC';-inkscape-font-specification:'Eras Medium ITC';text-align:start;writing-mode:lr-tb;direction:ltr;text-anchor:start;fill:#61b2e4;fill-opacity:1;stroke-width:0.197357"
       x="16.402355"
       y="10.9974"
       id="text1"><tspan
         sodipodi:role="line"
         id="tspan1"
         style="font-style:normal;font-variant:normal;font-weight:normal;font-stretch:normal;font-size:14.736px;font-family:Consolas;-inkscape-font-specification:Consolas;fill:#61b2e4;fill-opacity:1;stroke-width:0.197357"
         x="16.402355"
         y="10.9974">ICE CUBE</tspan></text></g></svg>
